<svg xmlns="http://www.w3.org/2000/svg" xmlns:xlink="http://www.w3.org/1999/xlink" version="1.1" width="256" height="256" viewBox="0 0 256 256" xml:space="preserve">
<desc>Created with Fabric.js 1.7.22</desc>
<defs>
</defs>
<g transform="translate(128 128) scale(0.53 0.53)" style="">
	<g style="stroke: none; stroke-width: 0; stroke-dasharray: none; stroke-linecap: butt; stroke-linejoin: miter; stroke-miterlimit: 10; fill: none; fill-rule: nonzero; opacity: 1;" transform="translate(-239.122746932466 -64.07274693246607) rotate(-30) scale(3.89 3.89) matrix(1 0 0 -1 0 90)" >
	<path d="M 0 45 c 0 0.498 0.366 0.92 0.86 0.991 l 60.532 8.623 l -2.539 10.943 c -0.094 0.405 0.073 0.826 0.418 1.057 c 0.346 0.231 0.798 0.225 1.137 -0.016 l 29.198 -20.782 c 0.527 -0.376 0.527 -1.254 0 -1.63 L 60.407 23.403 c -0.339 -0.241 -0.791 -0.248 -1.137 -0.017 c -0.345 0.232 -0.512 0.654 -0.418 1.057 l 2.539 10.943 L 0.86 44.01 C 0.366 44.08 0 44.502 0 45 z" style="stroke: none; stroke-width: 1; stroke-dasharray: none; stroke-linecap: butt; stroke-linejoin: miter; stroke-miterlimit: 10; fill: rgb(0,0,0); fill-rule: nonzero; opacity: 1;" transform=" matrix(1 0 0 1 0 0) " stroke-linecap="round" />
</g>
</g>
</svg>